HIERARCHY
ROOT Hips
{
	OFFSET 0.000000 0.000000 0.000000
	CHANNELS 6 Xposition Yposition Zposition Xrotation Yrotation Zrotation
	JOINT LeftUpLeg_virtual
	{
		OFFSET 0.000000 0.000000 0.000000
		CHANNELS 3 Xrotation Yrotation Zrotation
		JOINT LeftUpLeg
		{
			OFFSET 11.394100 -6.187798 -0.413800
			CHANNELS 3 Xrotation Yrotation Zrotation
			JOINT LeftLeg
			{
				OFFSET 0.430247 -32.302673 3.732800
				CHANNELS 3 Xrotation Yrotation Zrotation
				JOINT LeftFoot
				{
					OFFSET -0.430247 -48.264931 -6.423300
					CHANNELS 3 Xrotation Yrotation Zrotation
					JOINT LeftToeBase
					{
						OFFSET 4.230900 -16.068199 23.438400
						CHANNELS 3 Xrotation Yrotation Zrotation
						JOINT LeftToe_End
						{
							OFFSET 4.510700 0.695400 19.974600
							CHANNELS 3 Xrotation Yrotation Zrotation
							End Site
							{
								OFFSET 0 0 0
							}
						}
					}
				}
			}
		}
	}
	JOINT RightUpLeg_virtual
	{
		OFFSET 0.000000 0.000000 0.000000
		CHANNELS 3 Xrotation Yrotation Zrotation
		JOINT RightUpLeg
		{
			OFFSET -11.333700 -6.187798 -0.413800
			CHANNELS 3 Xrotation Yrotation Zrotation
			JOINT RightLeg
			{
				OFFSET -0.430392 -32.302628 3.733000
				CHANNELS 3 Xrotation Yrotation Zrotation
				JOINT RightFoot
				{
					OFFSET 0.430392 -48.264973 -6.423500
					CHANNELS 3 Xrotation Yrotation Zrotation
					JOINT RightToeBase
					{
						OFFSET -4.230900 -16.068199 23.438400
						CHANNELS 3 Xrotation Yrotation Zrotation
						JOINT RightToe_End
						{
							OFFSET -4.510700 0.695400 19.974600
							CHANNELS 3 Xrotation Yrotation Zrotation
							End Site
							{
								OFFSET 0 0 0
							}
						}
					}
				}
			}
		}
	}
	JOINT Spine_virtual
	{
		OFFSET 0.000000 0.000000 0.000000
		CHANNELS 3 Xrotation Yrotation Zrotation
		JOINT Spine
		{
			OFFSET -0.002400 12.777504 0.315300
			CHANNELS 3 Xrotation Yrotation Zrotation
			JOINT Spine1
			{
				OFFSET -0.002067 5.816869 0.032633
				CHANNELS 3 Xrotation Yrotation Zrotation
				JOINT Spine1_split
				{
					OFFSET -0.002067 5.816869 0.032633
					CHANNELS 3 Xrotation Yrotation Zrotation
					JOINT Spine2
					{
						OFFSET -0.002067 5.816869 0.032633
						CHANNELS 3 Xrotation Yrotation Zrotation
						JOINT Neck_virtual
						{
							OFFSET 0.000000 0.000000 0.000000
							CHANNELS 3 Xrotation Yrotation Zrotation
							JOINT Neck
							{
								OFFSET -0.003700 21.199493 -0.826900
								CHANNELS 3 Xrotation Yrotation Zrotation
								JOINT Head
								{
									OFFSET 0.000000 20.442200 4.834800
									CHANNELS 3 Xrotation Yrotation Zrotation
									JOINT HeadTop_End
									{
										OFFSET 0.000000 34.668396 4.968400
										CHANNELS 3 Xrotation Yrotation Zrotation
										End Site
										{
											OFFSET 0 0 0
										}
									}
								}
							}
						}
						JOINT LeftShoulder_virtual
						{
							OFFSET 0.000000 0.000000 0.000000
							CHANNELS 3 Xrotation Yrotation Zrotation
							JOINT LeftShoulder
							{
								OFFSET 3.288150 8.794197 -1.372250
								CHANNELS 3 Xrotation Yrotation Zrotation
								JOINT LeftShoulder_split
								{
									OFFSET 3.288150 8.794197 -1.372250
									CHANNELS 3 Xrotation Yrotation Zrotation
									JOINT LeftArm
									{
										OFFSET 11.953299 -2.279007 -0.146200
										CHANNELS 3 Xrotation Yrotation Zrotation
										JOINT LeftForeArm
										{
											OFFSET 18.448900 0.000000 0.000000
											CHANNELS 3 Xrotation Yrotation Zrotation
											JOINT LeftHand
											{
												OFFSET 29.527798 0.000000 0.000000
												CHANNELS 3 Xrotation Yrotation Zrotation
												End Site
												{
													OFFSET 0 0 0
												}
											}
										}
									}
								}
							}
						}
						JOINT RightShoulder_virtual
						{
							OFFSET 0.000000 0.000000 0.000000
							CHANNELS 3 Xrotation Yrotation Zrotation
							JOINT RightShoulder
							{
								OFFSET -3.249400 8.794197 -1.372250
								CHANNELS 3 Xrotation Yrotation Zrotation
								JOINT RightShoulder_split
								{
									OFFSET -3.249400 8.794197 -1.372250
									CHANNELS 3 Xrotation Yrotation Zrotation
									JOINT RightArm
									{
										OFFSET -11.953299 -2.279007 -0.146200
										CHANNELS 3 Xrotation Yrotation Zrotation
										JOINT RightForeArm
										{
											OFFSET -18.448900 0.000000 0.000000
											CHANNELS 3 Xrotation Yrotation Zrotation
											JOINT RightHand
											{
												OFFSET -29.527802 0.000000 0.000000
												CHANNELS 3 Xrotation Yrotation Zrotation
												End Site
												{
													OFFSET 0 0 0
												}
											}
										}
									}
								}
							}
						}
					}
				}
			}
		}
	}
}
MOTION
Frames: 11
Frame Time: 0.03333333
-6.405351 144.939346 -7.881367 0.000000 0.000000 0.000000 -0.344631 -8.633527 4.276625 -140.340798 -27.023440 8.033944 111.312809 -5.973859 -2.839137 27.785239 -7.546770 -28.973922 18.168723 0.773814 -5.659038 0.000000 0.000000 0.000000 3.229136 -14.082125 2.526163 -107.728161 27.094677 -32.363280 123.199086 15.366681 -10.790932 22.539780 -11.279641 32.249896 6.637466 8.142832 -34.672786 0.000000 0.000000 0.000000 4.093110 -8.708560 -1.020666 36.297586 7.494224 0.223173 6.499631 -2.664107 2.813444 -0.163079 -1.139265 0.097862 0.000000 0.000000 0.000000 13.846537 0.109472 4.558931 16.360870 10.211700 -4.147062 -16.695443 -7.950109 -5.830457 0.000000 0.000000 0.000000 7.691345 -1.384844 0.956515 1.217693 6.010089 13.020256 1.714031 -2.144169 1.109434 -26.516420 15.424956 13.295441 8.104612 -4.048536 8.845162 0.000000 0.000000 0.000000 8.985740 -2.056816 1.182998 -8.605370 -22.146060 -34.668749 0.587309 1.971536 -1.871872 -53.658171 35.039683 6.240611 -9.352992 2.274544 3.589673 0.000000 0.000000 0.000000 
-5.396721 143.458374 -7.214169 0.000000 0.000000 0.000000 0.464942 -8.320846 2.527058 -140.418403 -26.533352 6.430962 109.082725 -5.090081 -4.261261 30.807329 -7.440867 -23.737137 19.467552 0.372073 -9.715682 0.000000 0.000000 0.000000 4.228702 -13.301552 1.179905 -102.567954 24.264363 -33.577555 122.323183 15.690587 -9.796122 16.736211 -18.027724 27.948852 1.746150 7.493173 -26.923337 0.000000 0.000000 0.000000 3.571385 -8.558857 -2.293620 34.674712 10.267244 1.081874 6.240348 -1.457611 2.922257 -0.083404 -1.158590 0.166216 0.000000 0.000000 0.000000 14.519321 0.883902 4.400584 15.775886 8.996906 -3.314375 -15.089650 -12.567712 -6.554358 0.000000 0.000000 0.000000 7.785996 -0.298735 0.594433 0.809615 6.398528 14.259843 2.606903 -2.043631 -0.044092 -25.683991 9.682749 17.845210 6.865790 -2.298103 7.400557 0.000000 0.000000 0.000000 10.038472 -1.084384 1.045122 -8.721017 -21.308146 -35.152583 1.557289 2.280245 -1.914368 -43.484290 31.383698 -6.358171 -9.030172 4.879687 3.275923 0.000000 0.000000 0.000000 
-4.107242 140.435028 -6.541313 0.000000 0.000000 0.000000 1.699128 -8.974355 0.932756 -136.314798 -25.683350 6.194135 106.638835 -5.144677 -3.133959 31.244171 -8.387038 -21.014014 13.230934 0.688435 -10.711823 0.000000 0.000000 0.000000 4.703836 -13.157262 -0.108741 -94.690266 19.026894 -32.765654 119.935308 15.715920 -8.329964 5.976512 -24.747597 20.903825 -3.529033 6.201899 -18.962601 0.000000 0.000000 0.000000 2.738751 -7.663346 -3.248126 32.152470 12.567354 1.976334 6.234895 -0.450281 2.902934 0.064307 -0.844886 0.098043 0.000000 0.000000 0.000000 14.892509 1.568175 3.758974 14.011914 7.668591 -1.053204 -13.435301 -16.046046 -6.994033 0.000000 0.000000 0.000000 7.974752 0.654140 0.329250 0.240730 6.643471 15.385609 3.302389 -1.686259 -1.559119 -25.934341 3.532086 20.813236 6.268511 -0.898484 5.831783 0.000000 0.000000 0.000000 11.083867 -0.142199 0.841022 -8.525276 -20.040931 -34.293786 2.936312 2.246428 -1.832492 -35.503098 25.859994 -15.720876 -9.117669 11.540188 3.520507 0.000000 0.000000 0.000000 
-2.914604 135.478485 -5.995258 0.000000 0.000000 0.000000 3.015141 -10.384256 0.063213 -128.586398 -23.963061 7.851295 103.945589 -5.562574 -0.904346 29.980279 -9.377909 -19.378136 4.002093 1.162699 -8.401148 0.000000 0.000000 0.000000 4.751362 -12.657125 -0.833211 -84.853250 12.688051 -29.840851 115.926929 15.671734 -6.811659 -6.880367 -28.690445 12.968083 -8.996411 4.394952 -12.025951 0.000000 0.000000 0.000000 2.103297 -5.923520 -3.487875 28.984867 13.928509 2.622922 6.304202 0.128097 2.906053 0.183291 -0.427657 -0.063563 0.000000 0.000000 0.000000 14.939362 2.088509 2.939761 11.732376 6.389756 1.768421 -12.278232 -17.876891 -7.655397 0.000000 0.000000 0.000000 7.973745 1.333158 0.263056 -0.498340 7.102083 15.855656 3.865322 -1.346339 -2.585739 -26.817177 -0.793747 21.488605 6.514711 0.535687 4.228680 0.000000 0.000000 0.000000 11.720397 0.625132 0.813175 -8.081207 -18.749129 -32.296553 4.682463 2.131623 -1.419322 -31.433166 19.352764 -20.710950 -9.681918 19.979183 4.198992 0.000000 0.000000 0.000000 
-1.905961 129.078873 -6.251232 0.000000 0.000000 0.000000 4.070931 -11.812256 -0.156708 -118.314982 -21.489052 10.351647 100.116913 -5.444970 1.001547 28.497737 -8.797063 -18.730689 -0.679356 1.003322 -5.899672 0.000000 0.000000 0.000000 4.270610 -11.629757 -1.021648 -74.849755 7.543483 -25.499425 110.341856 16.032636 -5.823816 -14.053112 -29.306515 9.186277 -14.517741 2.350493 -5.836587 0.000000 0.000000 0.000000 1.889757 -4.025751 -3.132490 25.424404 14.185040 2.914213 6.191835 0.254972 3.012339 0.378778 -0.019681 -0.180724 0.000000 0.000000 0.000000 14.472418 2.389780 2.238406 9.558816 5.189033 4.105991 -11.562043 -18.225585 -8.684062 0.000000 0.000000 0.000000 7.754902 1.639306 0.488588 -1.261027 8.226229 15.144906 4.197297 -0.722087 -2.932540 -27.066330 -2.157760 19.260234 7.495757 1.800748 2.641881 0.000000 0.000000 0.000000 11.736406 1.108376 1.044920 -7.389736 -17.710803 -29.078127 5.911092 2.626292 -0.874702 -30.300737 11.806116 -21.751176 -10.598868 27.048639 5.008981 0.000000 0.000000 0.000000 
-1.384570 121.880295 -6.905151 0.000000 0.000000 0.000000 4.971051 -11.298140 -0.064516 -107.024918 -18.439914 12.212821 93.830612 -4.518057 2.605020 27.492015 -6.798532 -20.482260 0.082977 0.817770 -4.201190 0.000000 0.000000 0.000000 3.595508 -9.521380 -0.928563 -65.722191 4.472448 -20.738906 102.473096 16.827706 -5.175777 -12.883924 -28.213256 10.352899 -18.577937 0.359402 -0.252625 0.000000 0.000000 0.000000 2.495527 -1.832349 -2.511755 21.774167 13.476874 2.904094 5.840204 -0.032994 3.225673 0.502632 0.251105 -0.155662 0.000000 0.000000 0.000000 13.512627 2.477232 1.777858 7.707287 4.382272 5.491285 -10.710210 -17.374613 -9.926369 0.000000 0.000000 0.000000 7.270612 1.523372 0.877503 -1.946812 10.105368 13.130036 4.404626 -0.399607 -2.423395 -25.418774 0.080852 13.593114 8.892206 2.015850 1.174262 0.000000 0.000000 0.000000 11.085846 1.259831 1.448004 -6.441662 -17.015104 -24.674569 6.980273 2.619998 -0.483897 -30.208004 2.915847 -19.054092 -11.441132 30.692876 5.529912 0.000000 0.000000 0.000000 
-1.435559 114.207085 -7.846298 0.000000 0.000000 0.000000 5.302783 -8.117239 -0.294104 -95.256748 -15.418542 13.053081 84.240022 -2.814477 3.556946 27.402874 -4.169752 -24.408840 0.495745 0.882647 -3.021481 0.000000 0.000000 0.000000 3.514792 -5.617998 -0.855992 -57.349704 2.845037 -16.510944 92.062617 17.456632 -4.071151 -8.364095 -26.314287 11.805438 -17.890004 -0.689845 4.824610 0.000000 0.000000 0.000000 3.756370 0.592095 -1.811930 18.439764 11.983132 2.603299 5.311408 -0.614256 3.389872 0.462870 0.290262 -0.005729 0.000000 0.000000 0.000000 12.158464 2.369272 1.572115 6.208005 4.168890 5.622884 -9.552428 -15.760945 -11.047583 0.000000 0.000000 0.000000 6.496675 1.094508 1.179693 -2.320190 12.403557 10.001916 4.357823 -0.185115 -1.542635 -21.544471 4.497982 4.309215 10.436555 0.771664 -0.080353 0.000000 0.000000 0.000000 9.855537 1.082438 1.871651 -5.379699 -16.503434 -19.460459 8.496622 2.598652 -0.456655 -29.034021 -7.513760 -12.317983 -11.822520 30.753559 5.405790 0.000000 0.000000 0.000000 
-1.885328 106.284027 -8.669777 0.000000 0.000000 0.000000 5.088040 -2.659842 -1.033965 -84.008588 -13.312837 12.521718 73.050369 -0.633703 4.395088 27.403665 -1.693740 -29.188130 -5.398781 1.106918 -2.086483 0.000000 0.000000 0.000000 4.009659 -0.881834 -1.177562 -48.671638 1.449396 -12.759229 79.487488 16.785542 -2.066485 -7.822220 -24.717097 8.713276 -11.159435 0.687998 8.249884 0.000000 0.000000 0.000000 5.529115 2.910801 -1.272745 16.075921 9.975088 2.059814 4.611809 -1.270649 3.352383 0.340852 0.231096 0.167940 0.000000 0.000000 0.000000 10.552637 2.150512 1.469372 4.655272 4.462150 4.778383 -7.968827 -14.114400 -11.688031 0.000000 0.000000 0.000000 5.590475 0.485110 1.195040 -2.207296 14.681265 6.340994 4.263833 -0.033247 -0.761175 -16.131648 8.663351 -7.906080 11.587200 -2.180032 -1.031036 0.000000 0.000000 0.000000 8.387647 0.687345 2.104571 -4.319656 -15.993796 -13.874489 10.270004 2.316300 -1.239867 -24.578998 -17.927375 -0.743996 -11.808720 29.282640 4.844604 0.000000 0.000000 0.000000 
-2.626857 98.098030 -9.803013 0.000000 0.000000 0.000000 4.669303 3.695078 -1.904838 -74.875361 -12.012915 10.673478 64.587512 1.830712 5.375834 25.595502 1.133878 -32.241713 -16.398466 1.390990 -2.254162 0.000000 0.000000 0.000000 4.801888 4.040617 -1.644042 -39.880378 -0.263832 -9.640850 68.214356 14.130324 -0.109709 -15.139003 -23.526494 0.422811 -1.416333 4.834744 6.973985 0.000000 0.000000 0.000000 7.384420 4.876449 -1.064480 15.274364 7.847669 1.250803 3.970531 -1.753267 3.102526 0.108673 -0.042747 0.288962 0.000000 0.000000 0.000000 8.949436 1.893183 1.352188 2.740662 5.129578 3.375042 -6.277079 -12.913106 -11.723746 0.000000 0.000000 0.000000 4.604342 -0.095323 0.831096 -1.704392 16.197619 2.843285 3.821481 -0.126916 -0.397869 -11.570690 10.605473 -21.397880 12.082645 -6.554644 -1.553796 0.000000 0.000000 0.000000 6.971474 0.279267 2.122066 -3.556364 -15.235538 -8.770000 12.498005 1.750696 -1.888242 -16.346441 -24.971073 15.877130 -11.592591 28.381675 4.101561 0.000000 0.000000 0.000000 
-3.651380 89.553978 -10.602970 0.000000 0.000000 0.000000 3.923021 8.904837 -2.402287 -68.913009 -10.623385 8.910425 61.863195 5.064871 5.020463 19.452707 6.016018 -30.976783 -25.993087 2.404109 -5.118170 0.000000 0.000000 0.000000 5.130772 7.637612 -1.893941 -32.793668 -2.410621 -7.607834 62.854570 10.337396 0.599687 -28.044545 -21.260818 -8.094446 7.285973 9.841420 -0.771063 0.000000 0.000000 0.000000 8.526291 6.178363 -0.976940 16.447557 5.861302 0.039912 3.593913 -1.877213 2.704941 0.011090 -0.316821 0.303353 0.000000 0.000000 0.000000 7.477340 1.711054 1.167098 0.310604 5.862509 1.787954 -5.059718 -12.573282 -11.257017 0.000000 0.000000 0.000000 3.745860 -0.448911 0.239805 -0.957392 16.432593 0.122838 3.242938 -0.109965 -0.531903 -10.406561 9.633382 -33.341408 11.932351 -12.268455 -1.631975 0.000000 0.000000 0.000000 5.929301 0.070222 2.028135 -3.195499 -14.034534 -4.770806 14.781335 1.689883 -2.621009 -7.409128 -25.563943 34.723893 -11.304496 29.388146 3.361401 0.000000 0.000000 0.000000 
-4.384799 80.723633 -11.894581 0.000000 0.000000 0.000000 3.119051 12.310522 -2.109674 -67.325584 -8.366700 8.189194 65.365361 8.747118 2.431371 8.178883 11.838474 -24.701582 -30.237066 4.292811 -9.578827 0.000000 0.000000 0.000000 4.074818 9.471173 -1.345577 -29.088440 -4.371641 -7.398684 66.639581 8.111434 -0.646322 -41.477222 -18.616881 -9.117392 11.204629 14.085033 -13.714288 0.000000 0.000000 0.000000 8.474586 6.557854 -0.700507 19.692981 4.163644 -1.622717 3.656958 -1.637114 2.335149 0.061586 -0.449765 0.265296 0.000000 0.000000 0.000000 6.221429 1.713018 0.924381 -2.609712 6.424012 0.458900 -4.743915 -13.225907 -10.512720 0.000000 0.000000 0.000000 3.236847 -0.491208 -0.303008 -0.146489 15.077248 -1.548175 2.674648 -0.160164 -0.899252 -13.530729 6.126152 -42.034251 11.642492 -19.120525 -1.148479 0.000000 0.000000 0.000000 5.412117 0.229628 1.908698 -3.202981 -12.404326 -2.418522 16.027348 1.532993 -2.747215 -2.911289 -20.176140 50.702373 -11.033941 32.467082 2.756883 0.000000 0.000000 0.000000 
